# xmcd
#
# Track frame offsets:
#	150
#	15640
#	32120
#	49170
#	67790
#	84680
#	105085
#	120485
#	139075
#	152070
#	167690
#	185245
#	198650
#	215700
#	230235
#
# Disc length: 3308 seconds
#
# Revision: 1
# Processed by: cddbd v1.5.1PL2 Copyright (c) Steve Scherf et al.
# Submitted via: audiograbber 1.83.01
#
DISCID=d10cea0f
DTITLE=Music Maestro - MM6132
DYEAR=1900
DGENRE=Karaoke
TTITLE0=Strait, George - I Know She Still Loves Me
TTITLE1=Loveless, Patty - You Can Feel Bad
TTITLE2=Lawrence, Tracy - If You Loved Me
TTITLE3=Diamond Rio - Walkin' Away
TTITLE4=Atkins, Rhett - She Said Yes
TTITLE5=Wynonna - To Be Loved By You
TTITLE6=Chesnutt, Mark - It Wouldn't Hurt To Have Wings
TTITLE7=White, Bryan - Rebecca Lynn
TTITLE8=McCoy, Neal - You Gotta Love That
TTITLE9=White, Lari - Ready, Willing And Able
TTITLE10=Walker, Clay - Hypnotize The Moon
TTITLE11=Lonestar - No News
TTITLE12=Ricochet - What Do I Know
TTITLE13=Morgan, Lorrie - Standing Tall
TTITLE14=Little Texas - Country Crazy
EXTD=As Listed In KJ Pro
EXTT0=
EXTT1=
EXTT2=
EXTT3=
EXTT4=
EXTT5=
EXTT6=
EXTT7=
EXTT8=
EXTT9=
EXTT10=
EXTT11=
EXTT12=
EXTT13=
EXTT14=
PLAYORDER=
